<?xml version="1.0" encoding="UTF-8" standalone="no"?><!DOCTYPE svg PUBLIC "-//W3C//DTD SVG 1.1//EN" "http://www.w3.org/Graphics/SVG/1.1/DTD/svg11.dtd"><svg width="100%" height="100%" viewBox="0 0 378 187" version="1.1" xmlns="http://www.w3.org/2000/svg" xmlns:xlink="http://www.w3.org/1999/xlink" xml:space="preserve" xmlns:serif="http://www.serif.com/" style="fill-rule:evenodd;clip-rule:evenodd;stroke-linejoin:round;stroke-miterlimit:2;"><g><path d="M189.917,108.966l-54.119,77.312l-123.561,0c-4.704,-0 -8.992,-2.696 -11.029,-6.936c-2.038,-4.24 -1.465,-9.272 1.474,-12.946l106.365,-132.956c16.9,10.381 66.516,42.934 80.87,75.526Zm-80.744,-75.684l26.625,-33.282l105.113,0c4.908,-0 9.409,2.731 11.675,7.084c2.267,4.353 1.923,9.606 -0.892,13.627l-24.62,35.172c-20.493,7.565 -58.118,9.897 -117.902,-22.602Z" style="fill:#fff;"/><path d="M213.056,125.616c42.39,-8.303 116.151,34.817 116.151,34.817c-54.628,-31.856 -75.216,-63.258 -81.871,-85.922l26.125,-38.948c2.42,-3.607 6.542,-5.696 10.882,-5.514c4.34,0.182 8.273,2.608 10.382,6.405l83.235,149.824l-204.906,-1.027l40.002,-59.636Z" style="fill:#fff;"/></g></svg>