<?xml version="1.0" encoding="UTF-8" standalone="no"?>
<!DOCTYPE svg PUBLIC "-//W3C//DTD SVG 1.1//EN" "http://www.w3.org/Graphics/SVG/1.1/DTD/svg11.dtd">
<svg width="100%" height="100%" viewBox="0 0 1081 1080" version="1.1" xmlns="http://www.w3.org/2000/svg" xmlns:xlink="http://www.w3.org/1999/xlink" xml:space="preserve" xmlns:serif="http://www.serif.com/" style="fill-rule:evenodd;clip-rule:evenodd;stroke-linejoin:round;stroke-miterlimit:2;">
    <g transform="matrix(1,0,0,1,-4548,0)">
        <g id="Artboard5" transform="matrix(1,0,0,1,3392.765128,1130)">
            <rect x="1155.235" y="-1130" width="1080.737" height="1080" style="fill:none;"/>
            <g transform="matrix(1.455089,0,0,1.455089,2554.64215,-3019.99887)">
                <g>
                    <g transform="matrix(0.785268,0,0,0.785268,-1496.722857,1324.482175)">
                        <path d="M1152.9,467.026C1155,471.208 1154.636,476.206 1151.952,480.04C1133.601,506.285 1061.131,609.813 1043.758,634.632C1041.403,637.996 1037.554,640 1033.447,640C992.605,640 774.673,640 774.673,640C764.572,640 755.365,634.21 750.989,625.106C746.614,616.002 747.844,605.195 754.154,597.307L982.555,311.806C1017.641,333.358 1118.398,399.416 1152.9,467.026ZM982.827,311.466C982.827,311.466 1020.267,264.666 1034.552,246.81C1037.995,242.506 1043.209,240 1048.721,240L1265.712,240C1276.252,240 1285.916,245.864 1290.783,255.212C1295.65,264.56 1294.912,275.84 1288.868,284.474C1288.868,284.474 1249.992,340.011 1238.914,355.837C1236.985,358.593 1234.229,360.664 1231.044,361.748C1186.038,376.511 1106.52,378.708 982.827,311.466Z" style="fill:white;"/>
                    </g>
                    <g transform="matrix(-0.011741,-0.78518,0.78518,-0.011741,-886.243151,2928.160552)">
                        <path d="M1521.996,448.65C1524.536,450.409 1526.229,453.147 1526.669,456.205C1539.056,548.085 1447.405,699.616 1447.405,699.616C1515.03,587.536 1580.734,543.359 1629.159,528.172C1632.507,527.157 1636.135,527.726 1639.011,529.718C1656.283,541.668 1717.3,583.933 1717.3,583.933C1724.968,589.244 1729.32,598.161 1728.791,607.473C1728.261,616.786 1722.925,625.152 1714.705,629.559C1714.705,629.559 1497.003,746.28 1418.306,788.473C1412.496,791.588 1405.469,791.387 1399.847,787.945C1394.224,784.503 1390.849,778.337 1390.981,771.746C1392.724,684.415 1397.55,442.698 1398.821,379.062C1398.882,375.995 1400.625,373.209 1403.357,371.813C1406.089,370.417 1409.367,370.635 1411.889,372.382C1439.851,391.751 1505.363,437.129 1521.996,448.65Z" style="fill:white;"/>
                    </g>
                </g>
            </g>
        </g>
    </g>
</svg>
