<?xml version="1.0" encoding="UTF-8" standalone="no"?><!DOCTYPE svg PUBLIC "-//W3C//DTD SVG 1.1//EN" "http://www.w3.org/Graphics/SVG/1.1/DTD/svg11.dtd"><svg width="100%" height="100%" viewBox="0 0 1080 1080" version="1.1" xmlns="http://www.w3.org/2000/svg" xmlns:xlink="http://www.w3.org/1999/xlink" xml:space="preserve" xmlns:serif="http://www.serif.com/" style="fill-rule:evenodd;clip-rule:evenodd;stroke-linejoin:round;stroke-miterlimit:2;"><rect id="Artboard11" x="0" y="0" width="1080" height="1080" style="fill:none;"/><g id="Artboard111" serif:id="Artboard11"><circle cx="540" cy="540" r="535" style="fill:#028090;"/><g><path d="M537.898,558.471c2.606,4.839 2.262,10.733 -0.89,15.235c-16.062,22.986 -66.886,95.591 -82.022,117.214c-2.691,3.844 -7.088,6.134 -11.781,6.134c-37.255,-0 -200.865,-0 -200.865,-0c-7.932,-0 -15.162,-4.547 -18.598,-11.696c-3.436,-7.149 -2.47,-15.635 2.485,-21.829l179.356,-224.195c27.076,16.631 103.954,67.014 132.315,119.137Zm-132.102,-119.404c-0,0 26.342,-32.928 38.671,-48.339c3.935,-4.918 9.892,-7.781 16.19,-7.781l167.279,-0c8.276,-0 15.865,4.605 19.687,11.946c3.822,7.341 3.242,16.199 -1.504,22.979c-0,0 -28.261,40.373 -38.149,54.498c-2.256,3.223 -5.5,5.623 -9.242,6.837c-35.682,10.983 -97.599,11.685 -192.933,-40.14Z" style="fill:#fff;"/><path d="M577.914,599.314c2.015,-3.004 5.215,-5.007 8.798,-5.505c72.193,-9.271 190.112,59.663 190.112,59.663c-87.226,-50.866 -122.984,-101.045 -136.063,-138.676c-1.285,-3.845 -0.715,-8.069 1.544,-11.436c10.422,-15.576 40.519,-60.445 40.519,-60.445c4.08,-6.083 11.031,-9.605 18.349,-9.298c7.318,0.307 13.95,4.398 17.507,10.801c0,0 85.069,153.125 122.75,220.95c3.658,6.585 3.549,14.616 -0.288,21.099c-3.836,6.483 -10.824,10.444 -18.356,10.406c-73.434,-0.368 -237.388,-1.189 -291.536,-1.46c-3.506,-0.018 -6.718,-1.961 -8.36,-5.059c-1.642,-3.097 -1.448,-6.847 0.505,-9.758c15.564,-23.203 45.001,-67.088 54.521,-81.28Z" style="fill:#fff;"/></g></g></svg>